<?xml version="1.0" encoding="UTF-8"?>
<svg id="Layer_1" xmlns="http://www.w3.org/2000/svg" version="1.1" viewBox="0 0 1080 1080">
  <!-- Generator: Adobe Illustrator 29.1.0, SVG Export Plug-In . SVG Version: 2.1.0 Build 142)  -->
  <defs>
    <style>
      .st0 {
        fill: #f1f1f1;
      }

      .st1 {
        opacity: .2;
      }

      .st1, .st2 {
        isolation: isolate;
      }

      .st3 {
        fill: #a7a7a7;
      }

      .st2 {
        opacity: .2;
      }

      .st4 {
        fill: #2f2e41;
      }

      .st5 {
        fill: #e6e6e6;
      }

      .st6 {
        fill: #ffb6b6;
      }

      .st7 {
        fill: #c7264e;
      }

      .st8 {
        fill: #3f3d56;
      }

      .st9 {
        fill: #ccc;
      }

      .st10 {
        fill: #f2f2f2;
      }

      .st11 {
        fill: #cacaca;
      }
    </style>
  </defs>
  <path class="st0" d="M294.9,163.8c100.4-70.8,275.9-117.4,398.4-124.7,267.4-15.8,417.3,222.5,372.1,469.8-11.6,63.2-36.9,123.5-64,181.5s-62.1,132.9-96.7,191.1c-65.1,109.4-125.2,125.8-246.3,125.1-67-.3-144.4-1.7-210.8-7.3-128.9-11-176.1-55.6-259.9-149.1-56.1-62.6-155.2-165.1-178-243.6-25.7-88.3,41.6-176,93.2-241.6,53.6-68.1,121.3-151.5,192-201.4Z"/>
  <path class="st10" d="M204,718.4c-2.1,0-3.8-1.5-3.9-3.5,0-1.1.4-2.2,1.2-2.9,0-.4.2-.6.3-1,0,0,0-.2-.1-.2-2.2-5.1-8-7.5-13.1-5.3-2.4,1-4.3,3-5.3,5.4-3,7.3-6.8,14.5-7.8,22.2-.4,3.4-.2,6.8.5,10.2-7.1-15.4-10.8-32.2-10.8-49.2,0-4.3.2-8.5.7-12.8.4-3.5.9-6.9,1.6-10.3,3.8-18.6,11.9-36,23.8-50.8,5.7-3.1,10.4-7.9,13.3-13.8,1.1-2.1,1.8-4.3,2.2-6.6-.6,0-1.3.1-1.9.2-.2,0-.4,0-.6,0h0c-2,0-3.8-1.5-3.8-3.5,0-.9.3-1.8.8-2.5.3-.3.6-.7.8-1,.4-.5.9-1,1.3-1.6,0,0,0-.1.1-.2.5-.6,1-1.2,1.5-1.8-.9-1.4-2.1-2.5-3.5-3.4-4.9-2.9-11.6-.9-15.1,3.5-3.5,4.4-4.2,10.6-3,16.1,1.2,4.7,3.2,9.1,5.9,13.2-.3.3-.5.7-.8,1-4.8,6.2-9.1,12.9-12.6,19.9.9-7.9-.2-15.9-3-23.3-2.9-6.9-8.2-12.7-13-18.7-5.7-7.2-17.3-4-18.3,5.1,0,0,0,.2,0,.3.7.4,1.4.8,2.1,1.3,2.3,1.5,2.9,4.7,1.4,7-.8,1.2-2,2-3.4,2.2h-.1c.3,2.5.7,5.1,1.3,7.5,3.7,13.9,13,25.6,25.7,32.4.4.2.8.4,1.2.6-3.6,10.1-5.8,20.5-6.6,31.2-.5,6.3-.5,12.6,0,18.9v-.2c-1.4-7-5.1-13.3-10.6-17.8-8.1-6.7-19.6-9.1-28.3-14.5-2.7-1.7-6.3-.9-8,1.7-.7,1.2-1,2.5-.9,3.9,0,0,0,.2,0,.2,1.3.5,2.6,1.1,3.8,1.8.7.4,1.4.8,2.1,1.3,2.3,1.5,2.9,4.7,1.4,7-.8,1.2-2,2-3.4,2.2h-.1c0,0-.1,0-.2,0,2.2,5.3,5.4,10.2,9.2,14.5,9.7,10.4,23.3,16.4,37.5,16.5h0c1.9,8.3,4.7,16.4,8.3,24.1h29.5c.1-.3.2-.7.3-1-2.7.2-5.5,0-8.2-.5,2.2-2.7,4.4-5.4,6.6-8.1,0,0,0-.1.1-.2,1.1-1.4,2.2-2.7,3.3-4.1h0c0-4.2-.4-8.4-1.4-12.5h0Z"/>
  <path class="st9" d="M552.2,745.1c0,.7-.5,1.2-1.2,1.2H100.9c-.7,0-1.2-.5-1.2-1.2s.5-1.2,1.2-1.2h450.1c.7,0,1.2.5,1.2,1.2h0Z"/>
  <path class="st6" d="M335.4,587.8c-6.4-1.5-12.8,2.4-14.4,8.8-.2.7-.3,1.4-.3,2.1l-25.7,9,1.6,17,36.2-13.2c6.6,0,11.9-5.5,11.9-12.1,0-5.5-3.9-10.3-9.3-11.6h0Z"/>
  <path class="st4" d="M293.4,637.1c-10.2,7.1-28.3,10.8-52.8,10.6-2.7,0-5.4-1.1-7.2-3.2-6.6-6.8-6.3-22.4-6.3-23.9l-7.2-27.1c-.2-.4-4.1-11.5,0-19.3,1.7-3.3,4.8-5.6,8.5-6.5,15.2-4,29.5,36.7,31.3,42.1l21.4-3.6,14.7-.6,15-8.3,8.4,20.2-20.9,15.3c-1.4,1.6-3.1,3.1-4.9,4.3Z"/>
  <polygon class="st6" points="334.6 861.3 350.4 862.1 360.7 801.7 337.5 800.6 334.6 861.3"/>
  <path class="st4" d="M331.1,853.4l24.9-.3-.5,10.7,22.9,17.4c2.9,2.2,3.5,6.4,1.3,9.3-1.3,1.7-3.4,2.7-5.6,2.6l-29.6-1.4-4.6-10.8-2.5,10.4-11.2-.5,4.9-37.5Z"/>
  <polygon class="st6" points="498.9 731.8 504.6 717.1 450.7 688.1 423.5 705.2 498.9 731.8"/>
  <path class="st4" d="M490.2,732.6l7.7-23.7,9.9,3.9,23.8-16.1c3-2.1,7.2-1.3,9.2,1.8,1.2,1.8,1.5,4.1.7,6.2l-10.8,27.6-11.7.9,9.1,5.7-4.1,10.4-33.9-16.6Z"/>
  <path class="st4" d="M189.5,688.2s6.5,41.7,37.4,44.8c30.9,3.1,59.3-10.8,59.3-10.8l86.5-26.6s92,26.1,107.4,30.2c0,0,10.6-24.2,10.3-25.7-3.3-14.4-7.6-4.6-7.6-4.6l-97.8-43.2s-15.4-4.1-42.2,7.2c-26.8,11.3-98.5,38.6-98.5,38.6l-54.9-9.8Z"/>
  <path class="st4" d="M189.9,685.6s-5.1,50,24.9,57.6c28.6,7.3,68-.2,68-.2l47-4.9s2.1,60.4,2.1,90.3c9.6,1.3,19.2,2,28.8,2.1,2.1,0,2.2-1.1,2.2-1.1l4-104.4c1.1-18-12.6-33.4-30.5-34.5-1.1,0-2.1,0-3.2,0-2.2,0-4.5.2-7,.5-28.9,2.8-64.8-3.1-64.8-3.1l-71.5-2.1Z"/>
  <path class="st4" d="M273.3,613.1s12.2,73.8,4,79.7-19.6,5.9-19.6,5.9l-2.6-40.8,18.2-44.9Z"/>
  <path class="st4" d="M253,522.4l16.3,15.5c15.6,14.8,19.5,38.2,9.5,57.2l-7.8,14.9-18-87.6Z"/>
  <path class="st7" d="M249.3,525l22.1,25.2c4.9,5.5,7.9,12.4,8.6,19.8h0c.3,3.3.2,6.7-.4,10l-8.3,45.3-6.3,65.5s-48.4,14.7-53.3-8,37.6-157.7,37.6-157.7Z"/>
  <path class="st4" d="M228.5,696.9c-31.8-5.3-39.6-6.4-40.1-6.5l-.5-.2,3.2-19.1,13.5-33.1c.9-10.8,6.5-25.5,3.3-37.3-9.4-34.2,5.9-82.6,12.9-86.3l19.4-12.7,6.8,6.3,11.8,16.5c9.7,43.3,16.4,83.7,16.1,86.2l-6,42.4-7.1,16.3c-21.5,10.4-7,32-33.4,27.6Z"/>
  <path class="st5" d="M286.1,665.8l49.9-13.4,4.4-1,3.1-.7,3.7-.9h0c.5-.1,1.1,0,1.6.3l18.5,22.2c.2.1.3.2.4.4,0,0,0,0,.1.1.7.9.5,2.3-.5,3-.2.2-.5.3-.7.3l-74.5,17.1c-.8.2-1.6-.1-2.1-.7l-.8-1-4.1-19.9-.3-2.6c-.2-.2-.3-.5-.4-.8-.2-1.1.4-2.2,1.5-2.5Z"/>
  <path class="st1" d="M289.4,691.5l.8,1c.5.6,1.3.9,2.1.7l74.5-17.1c1.1-.3,1.8-1.4,1.5-2.6,0-.3-.2-.5-.3-.7,0,0,0,0-.1-.1l-78.4,18.9Z"/>
  <path class="st5" d="M346.9,649.6l-1.3-95c0-.6.1-1.1.5-1.6l9.5-19.9,1-1.2c.4-.4.9-.7,1.5-.8l2.1-.2c1.2-.1,2.3.8,2.4,1.9h0l1.9,100.5h0s.9,9.7.9,9.7l1.1,11.5h0s1.7,17.9,1.7,17.9c0,.6-.1,1.2-.6,1.7-.4.5-1,.7-1.6.7h-1.4c-.5,0-1-.2-1.4-.6l-.8-.7-.4-.3-14.4-22.3c-.4-.4-.7-.9-.7-1.4Z"/>
  <path class="st1" d="M355.6,533.2l6.5,140.1.4.3.8.7c.4.3.9.5,1.4.6h1.4c1.2,0,2.2-.9,2.2-2.1,0,0,0-.2,0-.2l-5.6-139.5c-.1-1.2-1.2-2.1-2.4-2l-2.1.2c-.6,0-1.1.3-1.5.8l-1,1.2Z"/>
  <polygon class="st7" points="356.1 538.9 347.4 560.4 348.4 624.9 357.9 638.5 356.1 538.9"/>
  <path class="st4" d="M291.9,665.2c-1,.3-1.6,1.3-1.3,2.3l3.8,16,3.6-1-3.8-16c-.3-1-1.3-1.6-2.3-1.3Z"/>
  <path class="st4" d="M299.1,663.2c-1,.3-1.6,1.3-1.3,2.3l.8,2.9,3.6-1-.8-2.9c-.3-1-1.3-1.6-2.3-1.3Z"/>
  <path class="st4" d="M306.3,661.1c-1,.3-1.6,1.3-1.3,2.3l.8,2.9,3.6-1-.8-2.9c-.3-1-1.3-1.6-2.3-1.3Z"/>
  <path class="st4" d="M313.5,659c-1,.3-1.6,1.3-1.3,2.3l.8,2.9,3.6-1-.8-2.9c-.3-1-1.3-1.6-2.3-1.3Z"/>
  <path class="st4" d="M320.7,657c-1,.3-1.6,1.3-1.3,2.3l.8,2.9,3.6-1-.8-2.9c-.3-1-1.3-1.6-2.3-1.3Z"/>
  <path class="st4" d="M327.9,654.9c-1,.3-1.6,1.3-1.3,2.3l.8,2.9,3.6-1-.8-2.9c-.3-1-1.3-1.6-2.3-1.3Z"/>
  <path class="st4" d="M335.1,652.9c-1,.3-1.6,1.3-1.3,2.3l.8,2.9,3.6-1-.8-2.9c-.3-1-1.3-1.6-2.3-1.3Z"/>
  <path class="st4" d="M342.3,650.8c-1,.3-1.6,1.3-1.3,2.3l.8,2.9,3.6-1-.8-2.9c-.3-1-1.3-1.6-2.3-1.3Z"/>
  <path class="st4" d="M300.6,669.7c-1,.3-1.6,1.3-1.3,2.3l.8,2.9,3.6-1-.8-2.9c-.3-1-1.3-1.6-2.3-1.3Z"/>
  <path class="st4" d="M307.8,667.7c-1,.3-1.6,1.3-1.3,2.3l.8,2.9,3.6-1-.8-2.9c-.3-1-1.3-1.6-2.3-1.3Z"/>
  <path class="st4" d="M315,665.6c-1,.3-1.6,1.3-1.3,2.3l.8,2.9,3.6-1-.8-2.9c-.3-1-1.3-1.6-2.3-1.3Z"/>
  <path class="st4" d="M322.2,663.6c-1,.3-1.6,1.3-1.3,2.3l.8,2.9,3.6-1-.8-2.9c-.3-1-1.3-1.6-2.3-1.3Z"/>
  <path class="st4" d="M329.4,661.5c-1,.3-1.6,1.3-1.3,2.3l.8,2.9,3.6-1-.8-2.9c-.3-1-1.3-1.6-2.3-1.3Z"/>
  <path class="st4" d="M336.6,659.5c-1,.3-1.6,1.3-1.3,2.3l.8,2.9,3.6-1-.8-2.9c-.3-1-1.3-1.6-2.3-1.3Z"/>
  <path class="st4" d="M343.8,657.4c-1,.3-1.6,1.3-1.3,2.3l.8,2.9,3.6-1-.8-2.9c-.3-1-1.3-1.6-2.3-1.3Z"/>
  <path class="st4" d="M302.1,676.3c-1,.3-1.6,1.3-1.3,2.3l.8,2.9,3.6-1-.8-2.9c-.3-1-1.3-1.6-2.3-1.3Z"/>
  <path class="st4" d="M309.3,674.2c-1,.3-1.6,1.3-1.3,2.3l.8,2.9,3.6-1-.8-2.9c-.3-1-1.3-1.6-2.3-1.3Z"/>
  <path class="st4" d="M316.5,672.2c-1,.3-1.6,1.3-1.3,2.3l.8,2.9,3.6-1-.8-2.9c-.3-1-1.3-1.6-2.3-1.3Z"/>
  <path class="st4" d="M323.7,670.1c-1,.3-1.6,1.3-1.3,2.3l.8,2.9,3.6-1-.8-2.9c-.3-1-1.3-1.6-2.3-1.3Z"/>
  <path class="st4" d="M330.9,668.1c-1,.3-1.6,1.3-1.3,2.3l.8,2.9,3.6-1-.8-2.9c-.3-1-1.3-1.6-2.3-1.3Z"/>
  <path class="st4" d="M338.1,666c-1,.3-1.6,1.3-1.3,2.3l.8,2.9,3.6-1-.8-2.9c-.3-1-1.3-1.6-2.3-1.3Z"/>
  <path class="st4" d="M345.4,664c-1,.3-1.6,1.3-1.3,2.3l.8,2.9,3.6-1-.8-2.9c-.3-1-1.3-1.6-2.3-1.3Z"/>
  <path class="st6" d="M324.2,651.5c-3.7-5.5-11.1-7-16.5-3.3-.6.4-1.1.8-1.6,1.3l-25-10.9-10.3,13.5,35.5,15c4.9,4.5,12.5,4.1,16.9-.8,3.7-4.1,4.2-10.2,1.1-14.8h0Z"/>
  <path class="st4" d="M259.9,659.2c-12.4-1.7-28-11.3-45.9-28.1-2-1.9-3.2-4.5-3.2-7.2-.2-9.5,10.6-20.7,11.7-21.8l13.2-24.8c.2-.4,4.8-11.3,13.1-14.2,3.5-1.2,7.4-.8,10.6,1,13.9,7.4-3.3,47-5.7,52.2l18.1,11.9,11.2,9.6,16.6,4.1-7.6,20.6-25.7-3c-2.2.2-4.4.2-6.5-.2Z"/>
  <ellipse class="st6" cx="253.5" cy="468.1" rx="31.7" ry="31" transform="translate(-241.5 664.1) rotate(-83.2)"/>
  <path class="st4" d="M172.8,444.6c6-5.5,9.4-13.3,14.4-19.7,5-6.4,13-11.8,20.5-9.2,5.2,1.7,8.7,6.9,10.2,12.4,1.4,5.5,1.1,11.3.8,16.9,1.3-11.6,10.2-21.9,21.2-24.3,10.9-2.4,23,3.2,28.5,13.3,6.6-4.8,15.8-3.9,21.4,2.1,5.3,6,5.4,16.2.2,22.4s-14.9,7.6-21.3,3l-2.7,2c.8,5-2.5,10.3-7.2,11.6-3.8,1-8.9.2-10.7,3.8-1.3,2.5.2,5.6,1.8,7.9,1.6,2.3,3.6,4.7,3.5,7.5-.2,4.3-4.9,6.8-9.1,7.2-9.9,1-20.1-4.8-24.7-14,0-.2-.2-.4-.3-.5-5.4-8.8-6.8-19.5-4.1-29.5.6-1.9.4-3.4-.9-4.1-5.6-2.7-22.6-.5-28.1,2.8-5.4,3.2-10,7.8-15.3,11.3-5.3,3.5-11.8,5.9-17.8,4.1-4.8-1.5-8.5-5.5-10.8-10.1-2.3-4.6-3.3-9.8-4.1-14.9,10.1,7.5,25.1,6.7,34.5-1.9Z"/>
  <path class="st11" d="M987.9,223.4h-467.6c-1,0-1.8-.9-1.8-1.9,0-1,.8-1.8,1.8-1.8h467.6c1,0,1.8.9,1.8,1.9,0,1-.8,1.8-1.8,1.8Z"/>
  <ellipse class="st8" cx="552.1" cy="199.1" rx="10.9" ry="11.1"/>
  <ellipse class="st8" cx="589.8" cy="199.1" rx="10.9" ry="11.1"/>
  <ellipse class="st8" cx="627.4" cy="199.1" rx="10.9" ry="11.1"/>
  <path class="st8" d="M965.2,190.7h-26.7c-1.1,0-2,.9-2,2.1,0,1.1.9,2,2,2h26.7c1.1,0,2-.9,2-2.1,0-1.1-.9-2-2-2Z"/>
  <path class="st8" d="M965.2,198.3h-26.7c-1.1,0-2,.9-2,2.1,0,1.1.9,2,2,2h26.7c1.1,0,2-.9,2-2.1,0-1.1-.9-2-2-2Z"/>
  <path class="st8" d="M965.2,205.9h-26.7c-1.1,0-2,.9-2,2.1,0,1.1.9,2,2,2h26.7c1.1,0,2-.9,2-2.1,0-1.1-.9-2-2-2Z"/>
  <path class="st4" d="M168.1,650.8h0s0,0,0,0h0Z"/>
  <circle class="st3" cx="810.5" cy="282.4" r="13.5"/>
  <path class="st3" d="M924,312.2h-123c-2.2,0-4-1.8-4-4s1.8-4,4-4c0,0,0,0,0,0h123c2.2,0,4,1.8,4,4s-1.8,4-4,4c0,0,0,0,0,0Z"/>
  <path class="st3" d="M831.5,328.1h-30.6c-2.2,0-4-1.8-4-4s1.8-4,4-4h30.6c2.2,0,4,1.8,4,4s-1.8,4-4,4Z"/>
  <circle class="st3" cx="810.5" cy="492.7" r="13.5"/>
  <path class="st3" d="M924,522.5h-123c-2.2,0-4-1.8-4-4s1.8-4,4-4h123c2.2,0,4,1.8,4,4s-1.8,4-4,4h0Z"/>
  <path class="st3" d="M831.5,538.4h-30.6c-2.2,0-4-1.8-4-4,0-2.2,1.8-4,4-4h30.6c2.2,0,4,1.8,4,4,0,2.2-1.8,4-4,4Z"/>
  <circle class="st3" cx="593.6" cy="460.8" r="13.5"/>
  <path class="st3" d="M707.2,490.6h-123c-2.2,0-4-1.8-4-4s1.8-4,4-4h123c2.2,0,4,1.8,4,4s-1.8,4-4,4h0Z"/>
  <path class="st3" d="M614.7,506.5h-30.6c-2.2,0-4-1.8-4-4,0-2.2,1.8-4,4-4h30.6c2.2,0,4,1.8,4,4,0,2.2-1.8,4-4,4h0,0Z"/>
  <circle class="st3" cx="810.5" cy="379.6" r="13.5"/>
  <path class="st3" d="M924,409.5h-123c-2.2,0-4-1.8-4-4s1.8-4,4-4h123c2.2,0,4,1.8,4,4s-1.8,4-4,4h0Z"/>
  <path class="st3" d="M874.9,425.3h-73.9c-2.2,0-4-1.8-4-4,0-2.2,1.8-4,4-4h73.9c2.2,0,4,1.8,4,4,0,2.2-1.8,4-4,4Z"/>
  <path class="st3" d="M854.3,441.2h-53.3c-2.2,0-4-1.8-4-4,0-2.2,1.8-4,4-4h53.3c2.2,0,4,1.8,4,4,0,2.2-1.8,4-4,4Z"/>
  <path class="st7" d="M687.6,292.1v141.5c0,2.1-1.7,3.7-3.7,3.7h-74.5c-8.2-7.6-15-16.7-20-26.8-.3-.7-.6-1.3-.9-2-4.5-9.8-7.2-20.3-8.1-31,0-.7-.1-1.3-.1-2-.1-1.7-.1-3.4-.1-5.2,0-11.5,2.2-23,6.4-33.7.3-.7.5-1.3.8-2,5.6-13.2,14.2-24.9,25.2-34.1.7-.6,1.3-1.1,2-1.6h.2c8.6-6.9,19.2-10.6,30.1-10.5h39.2c2.1,0,3.7,1.7,3.7,3.7Z"/>
  <path class="st2" d="M687.8,336.6v-2h-33.2v-46.3h-2v46.3h-38.1v-35.7c-.7.5-1.3,1.1-2,1.6v34.1h-25.2c-.3.7-.5,1.3-.8,2h26v38.9h-32.2c0,.7,0,1.3.1,2h32.1v31h-24.1c.3.7.6,1.3.9,2h23.1v26.1h2v-26.1h38.1v26.1h2v-26.1h33.2v-2h-33.2c0-17.1,13.9-31,31-31h2.2v-2h-33.2v-38.9h33.2ZM652.6,408.4h-38.1v-31h38.1v31ZM652.6,375.5h-38.1v-.8c0-21,17.1-38.1,38.1-38.1h0v38.9Z"/>
  <path class="st4" d="M684.1,408.9c-2.1,0-4-1.6-4.1-3.7,0-1.1.4-2.3,1.2-3,0-.4.2-.7.3-1.1,0,0,0-.2-.1-.3-3.6-8.5-26.4,15.3-27.4,23.3-.4,3.5-.3,7.1.5,10.6-7.4-16.2-11.2-33.7-11.3-51.5,0-4.5.2-8.9.7-13.3.4-3.6,1-7.2,1.7-10.8,4-19.4,12.5-37.6,24.9-53.1,7.1.4,13.3-.7,13.9-14.4.1-2.4,1.9-4.6,2.3-7-.7,0-1.4.1-2,.2-.2,0-.4,0-.6,0h0c-2.1,0-3.9-1.5-4-3.7,0-.9.3-1.9.9-2.6.3-.4.6-.7.9-1.1.4-.6.9-1.1,1.3-1.6,0,0,0-.1.1-.2.5-.6,1-1.3,1.5-1.9-.9-1.4-2.2-2.7-3.7-3.5-5.1-3-12.1-.9-15.8,3.7-3.7,4.6-4.4,11.1-3.1,16.9,1.3,4.9,3.4,9.6,6.2,13.8-.3.4-.6.7-.8,1.1-5.1,6.5-9.5,13.5-13.2,20.9,1-8.2-11.7-37.7-16.7-43.9-5.9-7.5-18.1-4.2-19.2,5.3,0,0,0,.2,0,.3.7.4,1.5.9,2.2,1.3,2.4,1.6,3.1,4.9,1.5,7.3-.8,1.2-2.1,2.1-3.6,2.3h-.1c-9.8,14.1,21.7,50.6,29.6,42.4-3.7,10.5-6,21.5-6.9,32.6-.5,6.6-.5,13.2,0,19.7v-.2c-1.8-14.3-31.9-35.5-40.7-33.8-5.1,1-10,.8-9.3,5.9,0,0,0,.2,0,.2,1.4.6,2.7,1.2,4,1.9.7.4,1.5.9,2.2,1.3,2.4,1.6,3.1,4.9,1.5,7.3-.8,1.2-2.1,2.1-3.6,2.3h-.1c0,0-.1,0-.2,0-4.5,15.4,28.7,40.3,48.9,32.4h0c2,8.7,4.9,17.2,8.6,25.2h30.9c.1-.3.2-.7.3-1-2.9.2-5.7,0-8.5-.5,2.3-2.8,4.6-5.6,6.9-8.5,0,0,0-.1.1-.2,1.2-1.4,2.3-2.9,3.5-4.3h0c0-4.4-.4-8.8-1.5-13.1h0ZM648.7,339.3h0s0,0,0,0h0ZM641.8,401l-.3-.6c0-.4,0-.9,0-1.3,0-.1,0-.2,0-.4,0,.8.2,1.5.3,2.3h0Z"/>
</svg>